<?xml version="1.0" encoding="UTF-8" standalone="no"?>
<svg width="350px" height="66px" viewBox="0 0 350 66" version="1.1" xmlns="http://www.w3.org/2000/svg" xmlns:xlink="http://www.w3.org/1999/xlink">
    <!-- Generator: Sketch 40.3 (33839) - http://www.bohemiancoding.com/sketch -->
    <title>Group</title>
    <desc>Created with Sketch.</desc>
    <defs>
        <linearGradient x1="59.8292054%" y1="29.5317161%" x2="15.7890302%" y2="120.269609%" id="linearGradient-1">
            <stop stop-color="#0197A7" offset="0%"></stop>
            <stop stop-color="#64E6A6" offset="100%"></stop>
        </linearGradient>
    </defs>
    <g id="Page-1" stroke="none" stroke-width="1" fill="none" fill-rule="evenodd">
        <g id="Group">
            <path d="M32.685,0.0001 C14.662,0.0001 0,14.6621 0,32.6851 L0,32.6851 C0,50.7071 14.662,65.3691 32.685,65.3691 L32.685,65.3691 C50.707,65.3691 65.37,50.7071 65.37,32.6851 L65.37,32.6851 C65.37,14.6621 50.707,0.0001 32.685,0.0001 L32.685,0.0001 Z" id="Fill-1" fill="url(#linearGradient-1)"></path>
            <path d="M35.6036,27.1719 C35.6036,27.1719 38.1396,29.3359 38.1466,29.6159 C36.5056,33.4119 35.3276,36.6299 35.4036,37.1779 C36.9586,38.1649 38.9106,39.6729 38.3466,42.4809 C40.0516,43.2759 41.6056,44.2339 41.6656,45.4739 C42.8226,45.5079 44.7096,46.6399 44.0406,49.0059 C45.6866,49.9069 46.7336,50.4219 46.6966,52.2119 C48.2566,52.4379 50.9606,52.3409 51.4936,56.3239 C50.3656,57.1269 44.8026,61.5989 34.9896,62.4859 L25.1226,36.0279 L35.6036,27.1719 Z" id="Fill-3" fill="#E8E8E8"></path>
            <path d="M35.689,51.4595 L35.593,51.1075 L35.562,50.9435 L35.541,50.8195 L35.531,50.7485 L35.469,50.5425 L35.397,50.3475 C35.397,50.3475 35.171,49.8645 34.886,49.5815 L34.368,49.3615 C34.314,49.3415 34.259,49.2875 34.204,49.2715 C34.191,49.2675 34.179,49.2465 34.167,49.2425 C34.055,49.2125 33.942,49.1835 33.828,49.1715 C33.816,49.1705 33.805,49.1645 33.793,49.1645 C33.736,49.1595 33.679,49.1535 33.621,49.1535 C33.45,49.1535 33.279,49.1735 33.113,49.2155 C33.131,49.1435 33.148,49.0695 33.162,48.9975 C33.167,48.9705 33.17,48.9415 33.175,48.9145 C33.183,48.8685 33.191,48.8235 33.197,48.7775 C33.201,48.7455 33.203,48.7135 33.206,48.6815 C33.21,48.6405 33.214,48.5985 33.217,48.5575 C33.219,48.5235 33.219,48.4915 33.22,48.4595 C33.221,48.4165 33.223,48.3745 33.223,48.3315 L33.222,48.2785 C33.221,48.2285 33.218,48.1765 33.215,48.1255 C33.213,48.1035 33.212,48.0815 33.21,48.0595 C33.206,48.0085 33.2,47.9575 33.193,47.9065 C33.191,47.8895 33.189,47.8715 33.187,47.8545 C33.177,47.7875 33.166,47.7225 33.152,47.6565 C33.148,47.6395 33.144,47.6215 33.14,47.6035 C33.129,47.5545 33.117,47.5055 33.104,47.4565 C33.098,47.4345 33.091,47.4105 33.085,47.3885 C33.071,47.3415 33.056,47.2965 33.041,47.2505 C33.034,47.2305 33.027,47.2105 33.02,47.1895 C32.998,47.1275 32.973,47.0645 32.947,47.0035 C32.94,46.9875 32.933,46.9735 32.926,46.9575 C32.905,46.9095 32.882,46.8625 32.859,46.8155 C32.848,46.7945 32.836,46.7725 32.825,46.7515 C32.802,46.7085 32.779,46.6665 32.754,46.6245 C32.743,46.6055 32.732,46.5865 32.72,46.5665 C32.684,46.5085 32.647,46.4505 32.607,46.3945 C32.601,46.3855 32.593,46.3765 32.587,46.3675 C32.552,46.3185 32.516,46.2715 32.479,46.2255 C32.464,46.2065 32.449,46.1885 32.434,46.1705 C32.402,46.1315 32.368,46.0935 32.334,46.0555 C32.318,46.0385 32.303,46.0225 32.288,46.0055 C32.238,45.9535 32.187,45.9015 32.133,45.8525 C31.839,45.5795 31.509,45.3685 31.16,45.2195 C31.198,45.1915 31.235,45.1625 31.272,45.1335 C31.349,45.0735 31.425,45.0125 31.499,44.9465 C31.51,44.9385 31.521,44.9285 31.532,44.9185 C31.57,44.8845 31.608,44.8485 31.646,44.8125 C31.662,44.7975 31.677,44.7835 31.692,44.7695 C31.744,44.7175 31.795,44.6655 31.846,44.6105 C31.899,44.5535 31.951,44.4945 32.001,44.4345 C32.019,44.4145 32.034,44.3945 32.05,44.3735 C32.083,44.3335 32.116,44.2935 32.147,44.2525 C32.166,44.2275 32.183,44.2015 32.202,44.1775 C32.229,44.1395 32.256,44.1035 32.282,44.0645 C32.3,44.0375 32.317,44.0105 32.335,43.9825 C32.359,43.9455 32.383,43.9095 32.406,43.8725 C32.424,43.8445 32.44,43.8145 32.457,43.7865 C32.479,43.7495 32.5,43.7125 32.521,43.6755 C32.537,43.6465 32.552,43.6155 32.568,43.5865 C32.587,43.5495 32.606,43.5125 32.624,43.4755 C32.639,43.4435 32.653,43.4135 32.668,43.3825 C32.685,43.3455 32.702,43.3085 32.718,43.2715 C32.731,43.2385 32.744,43.2075 32.757,43.1765 C32.772,43.1385 32.787,43.1015 32.801,43.0635 C32.813,43.0305 32.824,42.9985 32.835,42.9665 C32.849,42.9285 32.861,42.8905 32.874,42.8525 C32.884,42.8195 32.894,42.7875 32.904,42.7545 C32.915,42.7165 32.926,42.6785 32.936,42.6395 C32.945,42.6055 32.954,42.5725 32.961,42.5405 C32.971,42.5015 32.98,42.4635 32.988,42.4245 C32.996,42.3915 33.002,42.3565 33.009,42.3235 C33.017,42.2855 33.023,42.2465 33.03,42.2075 C33.036,42.1745 33.042,42.1405 33.046,42.1055 C33.052,42.0665 33.057,42.0285 33.062,41.9905 C33.065,41.9555 33.07,41.9215 33.073,41.8875 C33.077,41.8495 33.08,41.8105 33.083,41.7715 C33.085,41.7365 33.088,41.7015 33.09,41.6675 C33.092,41.6295 33.093,41.5915 33.094,41.5545 C33.095,41.5185 33.096,41.4825 33.096,41.4465 C33.097,41.4165 33.095,41.3865 33.095,41.3555 C33.094,41.3095 33.094,41.2625 33.092,41.2155 C33.09,41.1835 33.088,41.1505 33.086,41.1175 C33.083,41.0735 33.08,41.0295 33.076,40.9855 C33.073,40.9515 33.069,40.9175 33.065,40.8845 C33.06,40.8415 33.055,40.7995 33.049,40.7575 C33.044,40.7225 33.038,40.6875 33.032,40.6515 C33.025,40.6115 33.019,40.5705 33.011,40.5295 C33.004,40.4945 32.996,40.4585 32.988,40.4235 C32.98,40.3835 32.971,40.3435 32.961,40.3035 C32.953,40.2685 32.943,40.2325 32.934,40.1975 C32.923,40.1575 32.912,40.1185 32.9,40.0795 C32.89,40.0445 32.879,40.0095 32.868,39.9745 C32.855,39.9355 32.842,39.8965 32.829,39.8585 C32.816,39.8235 32.804,39.7885 32.791,39.7545 C32.776,39.7165 32.761,39.6785 32.745,39.6405 C32.731,39.6055 32.717,39.5715 32.702,39.5375 C32.686,39.4995 32.668,39.4625 32.65,39.4255 C32.635,39.3925 32.619,39.3575 32.603,39.3255 C32.584,39.2875 32.564,39.2505 32.544,39.2135 C32.527,39.1815 32.51,39.1485 32.492,39.1165 C32.471,39.0795 32.449,39.0435 32.427,39.0065 C32.408,38.9755 32.39,38.9435 32.371,38.9135 C32.347,38.8765 32.322,38.8405 32.298,38.8035 C32.278,38.7735 32.258,38.7445 32.238,38.7155 C32.211,38.6785 32.184,38.6425 32.156,38.6055 C32.136,38.5775 32.115,38.5495 32.094,38.5215 C32.064,38.4845 32.033,38.4475 32.001,38.4105 C31.981,38.3855 31.96,38.3595 31.939,38.3355 C31.903,38.2955 31.866,38.2555 31.829,38.2155 C31.81,38.1955 31.792,38.1755 31.773,38.1555 C31.716,38.0965 31.657,38.0385 31.596,37.9815 C31.547,37.9385 31.499,37.8955 31.449,37.8535 C31.404,37.8155 31.359,37.7785 31.314,37.7425 L31.312,37.7405 C31.483,37.2375 31.662,36.7455 31.846,36.2675 C33.654,31.5705 35.961,28.1875 36.274,27.7385 L35.438,27.0315 L34.593,26.3175 C34.593,26.3175 31.701,28.6105 28.337,30.4015 C27.668,30.7585 26.979,31.0965 26.29,31.3915 C26.097,29.6925 24.656,28.3715 22.905,28.3715 C22.491,28.3715 22.095,28.4455 21.728,28.5815 C21.215,27.3475 19.999,26.4795 18.58,26.4795 C18.51,26.4795 18.442,26.4825 18.374,26.4865 C18.474,26.2425 18.529,25.9765 18.529,25.6965 C18.529,24.5455 17.597,23.6125 16.445,23.6125 C15.842,23.6125 15.301,23.8705 14.92,24.2795 C14.382,23.1055 13.198,22.2895 11.822,22.2895 C11.42,22.2895 11.035,22.3595 10.678,22.4865 C10.736,22.1915 10.767,21.8875 10.767,21.5755 C10.767,19.1515 8.93,17.1585 6.572,16.9105 C6.289,17.3915 6.02,17.8815 5.763,18.3785 C3.615,22.5385 2.4,27.2575 2.4,32.2625 C2.4,47.9995 14.394,60.9335 29.739,62.4265 C30.716,62.5215 31.707,62.5715 32.709,62.5715 C34.522,62.5715 36.297,62.4115 38.023,62.1065 C38.031,62.0535 38.038,61.9995 38.044,61.9455 C38.046,61.9235 38.048,61.9005 38.049,61.8785 C38.054,61.8365 38.058,61.7945 38.06,61.7525 C38.062,61.7255 38.102,61.6975 38.104,61.6705 C38.105,61.6335 38.147,61.5965 38.147,61.5595 L38.147,61.4725 C38.147,61.4375 38.106,61.4005 38.106,61.3655 C38.105,61.3365 38.083,61.3075 38.082,61.2775 C38.08,61.2415 38.068,61.2065 38.065,61.1725 C38.063,61.1425 38.055,61.1125 38.053,61.0835 C38.049,61.0485 38.043,61.0135 38.039,60.9785 C38.035,60.9495 38.03,60.9205 38.026,60.8915 C38.021,60.8555 38.014,60.8195 38.008,60.7855 C38.004,60.7565 37.999,60.7285 37.993,60.6995 C37.986,60.6635 37.979,60.6275 37.971,60.5915 C37.964,60.5635 37.959,60.5365 37.953,60.5105 C37.943,60.4725 37.933,60.4345 37.923,60.3965 C37.916,60.3715 37.91,60.3465 37.903,60.3215 C37.89,60.2745 37.875,60.2285 37.859,60.1815 C37.855,60.1665 37.85,60.1505 37.845,60.1365 C37.825,60.0755 37.802,60.0155 37.779,59.9545 C37.771,59.9345 37.762,59.9145 37.754,59.8945 C37.737,59.8545 37.721,59.8135 37.703,59.7735 C37.692,59.7495 37.681,59.7265 37.67,59.7025 C37.653,59.6665 37.636,59.6315 37.619,59.5965 C37.606,59.5705 37.593,59.5465 37.58,59.5225 C37.562,59.4875 37.544,59.4545 37.525,59.4205 C37.511,59.3965 37.497,59.3715 37.482,59.3475 C37.463,59.3135 37.443,59.2815 37.423,59.2495 C37.408,59.2255 37.392,59.2005 37.376,59.1765 C37.355,59.1455 37.334,59.1135 37.312,59.0815 C37.295,59.0585 37.279,59.0345 37.262,59.0115 C37.239,58.9805 37.215,58.9485 37.191,58.9175 C37.174,58.8955 37.156,58.8725 37.139,58.8505 C37.113,58.8185 37.086,58.7875 37.06,58.7565 C37.043,58.7355 37.025,58.7155 37.007,58.6945 C36.977,58.6605 36.945,58.6275 36.915,58.5955 C36.898,58.5775 36.883,58.5615 36.867,58.5445 C36.819,58.4945 36.77,58.4465 36.718,58.3995 C36.218,57.9355 35.634,57.6165 35.02,57.4395 C35.053,57.3665 35.083,57.2925 35.111,57.2185 C35.118,57.1995 35.125,57.1805 35.131,57.1615 C35.155,57.0955 35.177,57.0285 35.196,56.9615 C35.199,56.9515 35.202,56.9425 35.205,56.9335 C35.226,56.8565 35.244,56.7805 35.259,56.7035 C35.263,56.6855 35.266,56.6675 35.27,56.6485 C35.282,56.5845 35.292,56.5205 35.3,56.4555 C35.302,56.4385 35.305,56.4235 35.307,56.4075 C35.315,56.3315 35.322,56.2545 35.325,56.1775 C35.326,56.1595 35.326,56.1415 35.327,56.1235 C35.329,56.0595 35.329,55.9955 35.327,55.9325 C35.327,55.9145 35.327,55.8965 35.326,55.8795 C35.323,55.8035 35.317,55.7285 35.309,55.6525 C35.308,55.6365 35.305,55.6205 35.304,55.6055 C35.295,55.5385 35.285,55.4725 35.273,55.4065 C35.271,55.3925 35.269,55.3775 35.266,55.3625 C35.251,55.2875 35.233,55.2125 35.214,55.1385 C35.21,55.1225 35.205,55.1065 35.201,55.0905 C35.182,55.0245 35.161,54.9585 35.139,54.8935 C35.135,54.8815 35.131,54.8705 35.127,54.8585 C35.101,54.7855 35.071,54.7135 35.04,54.6415 C35.033,54.6255 35.025,54.6095 35.018,54.5945 C34.988,54.5295 34.957,54.4655 34.922,54.4015 C34.918,54.3935 34.914,54.3855 34.909,54.3765 C34.871,54.3075 34.83,54.2395 34.787,54.1725 C34.777,54.1565 34.767,54.1425 34.756,54.1265 C34.714,54.0635 34.67,54.0015 34.623,53.9395 C34.62,53.9365 34.617,53.9315 34.613,53.9275 C34.564,53.8625 34.511,53.8015 34.456,53.7405 L34.416,53.6965 C34.359,53.6365 34.301,53.5765 34.24,53.5205 C34.15,53.4375 34.057,53.3595 33.961,53.2875 C34.401,53.2155 34.821,53.0035 35.147,52.6515 C35.195,52.6005 35.239,52.5465 35.28,52.4915 C35.295,52.4735 35.307,52.4535 35.32,52.4345 C35.346,52.3975 35.373,52.3605 35.396,52.3235 C35.41,52.2995 35.422,52.2745 35.436,52.2505 C35.456,52.2165 35.475,52.1825 35.492,52.1465 C35.505,52.1205 35.516,52.0935 35.528,52.0655 C35.543,52.0325 35.558,51.9985 35.57,51.9645 C35.581,51.9365 35.59,51.9065 35.599,51.8785 C35.61,51.8445 35.622,51.8115 35.63,51.7765 C35.639,51.7465 35.645,51.7165 35.651,51.6875 C35.659,51.6525 35.667,51.6195 35.672,51.5855 C35.677,51.5545 35.681,51.5235 35.685,51.4925" id="Fill-5" fill="#FFFFFF"></path>
            <polygon id="Fill-7" fill="#DF3428" points="40.9029 27.896 35.8019 23.455 37.2009 21.853 42.3009 26.294"></polygon>
            <path d="M45.8584,17.3652 C50.7764,21.6482 51.4504,28.9162 47.3624,33.6012 C46.4124,34.6892 45.2864,35.5392 44.0604,36.1542 C45.5214,31.8662 44.2514,26.8212 40.4744,23.5332 C36.6984,20.2452 31.5194,19.6762 27.4674,21.7062 C27.9084,20.4092 28.5984,19.1802 29.5484,18.0922 C33.6374,13.4072 40.9394,13.0822 45.8584,17.3652" id="Fill-9" fill="#FF7748"></path>
            <path d="M37.9512,21.8384 C34.5862,20.1284 30.6752,20.1004 27.4672,21.7064 C27.9092,20.4094 28.5982,19.1804 29.5492,18.0914 C32.9842,14.1564 38.6872,13.2994 43.3392,15.6664 L37.9512,21.8384 Z" id="Fill-11" fill="#DF3428"></path>
            <path d="M59.2759,10.6933 C59.2759,10.6933 55.0679,6.1503 50.5519,3.2283 C47.8339,4.8543 45.1599,7.0723 42.7649,9.8163 C39.2749,13.8133 36.9699,18.2453 35.9659,22.3613 C37.2189,22.9263 38.4169,23.6813 39.5119,24.6353 C40.6089,25.5893 41.5209,26.6723 42.2509,27.8343 C46.1989,26.2793 50.2799,23.3943 53.7699,19.3973 C56.4519,16.3243 58.4289,12.9953 59.6589,9.7503 L59.2759,10.6933 Z" id="Fill-13" fill="#E2E2E2"></path>
            <path d="M51.5411,2.668 C51.5411,2.668 57.5201,6.746 59.6641,9.739 C60.9731,6.281 61.4331,2.918 60.9631,0.062 C58.0661,-0.014 54.7911,0.901 51.5391,2.669 L51.5411,2.668 Z" id="Fill-15" fill="#E2E2E2"></path>
            <path d="M59.6109,9.6709 C60.8499,6.2809 61.2819,2.9809 60.8709,0.1779 L55.8429,5.9299 C57.2839,7.1289 58.7399,8.4799 59.6109,9.6709" id="Fill-17" fill="#FFFFFF"></path>
            <path d="M55.1377,6.7358 L39.4837,24.6418 C40.3737,25.4868 41.6277,26.8418 42.2507,27.8338 C46.1987,26.2788 50.2807,23.3948 53.7697,19.3968 C56.1927,16.6208 58.0187,13.6148 59.2337,10.6488 C58.9737,10.3718 57.3507,8.6598 55.1377,6.7358" id="Fill-19" fill="#FFFFFF"></path>
            <path d="M42.065,23.8086 C39.76,26.4496 37.284,28.3176 35.604,28.8306 C35.883,27.0986 37.398,24.3936 39.704,21.7526 C42.009,19.1116 44.485,17.2436 46.166,16.7306 C45.886,18.4636 44.371,21.1676 42.065,23.8086" id="Fill-21" fill="#FF7748"></path>
            <path d="M35.6836,28.8032 C35.6566,28.8112 35.6296,28.8222 35.6036,28.8302 C35.8826,27.0982 37.3976,24.3932 39.7036,21.7522 C42.0096,19.1122 44.4856,17.2432 46.1656,16.7302 C46.1606,16.7572 46.1536,16.7862 46.1496,16.8132 L35.6836,28.8032 Z" id="Fill-23" fill="#DF3428"></path>
            <path d="M59.6636,9.7388 C58.4146,8.5038 57.0996,7.2778 55.7156,6.0728 C54.3326,4.8688 52.9366,3.7348 51.5406,2.6678 C54.7926,0.9008 58.0666,-0.0132 60.9636,0.0618 C61.4336,2.9178 60.9726,6.2808 59.6636,9.7388" id="Fill-25" fill="#FF7748"></path>
            <path d="M55.5811,5.9575 C54.2421,4.7965 52.8921,3.7005 51.5411,2.6675 C54.7921,0.9005 58.0671,-0.0135 60.9631,0.0615 C60.9721,0.1125 60.9781,0.1655 60.9861,0.2175 L55.5811,5.9575 Z" id="Fill-27" fill="#DA3C31"></path>
            <path d="M126.3877,14.5332 C127.1547,14.5332 127.4617,14.8902 127.4617,15.4022 C127.4617,15.6582 127.3587,15.9132 127.2567,16.1692 L112.1727,49.6592 C111.9687,50.1712 111.5587,50.8372 110.8947,50.8372 C110.2297,50.8372 109.8207,50.1712 109.6167,49.6592 L103.7867,36.5192 L97.9577,49.6592 C97.7537,50.1712 97.3447,50.8372 96.6797,50.8372 C96.0147,50.8372 95.6057,50.1712 95.4017,49.6592 L80.4707,16.1692 C80.3687,15.9652 80.3177,15.7092 80.3177,15.4532 C80.3177,14.9422 80.5737,14.5332 81.3907,14.5332 L86.2487,14.5332 C86.9647,14.5332 87.4247,14.8402 87.7317,15.5552 L96.6797,37.6952 L100.2587,29.7192 L94.4297,16.0152 C94.1227,15.4022 94.2767,14.5332 95.4527,14.5332 L99.3387,14.5332 C100.1057,14.5332 100.5657,14.8902 100.8217,15.5552 L103.7357,23.0722 L106.7527,15.5552 C107.0087,14.8902 107.4687,14.5332 108.2357,14.5332 L111.9687,14.5332 C113.1447,14.5332 113.2977,15.4022 112.9907,16.0152 L107.2127,29.4642 L110.8947,37.6952 L120.2007,15.5052 C120.4557,14.8402 120.9677,14.5332 121.6837,14.5332 L126.3877,14.5332 Z" id="Fill-29" fill="#FFFFFF"></path>
            <path d="M143.4126,37.5425 C143.4126,32.5835 140.4466,29.9745 136.7656,29.9745 C133.0836,29.9745 130.1186,32.5835 130.1186,37.5425 C130.1186,42.5015 133.0836,45.1085 136.7656,45.1085 C140.4466,45.1085 143.4126,42.5015 143.4126,37.5425 M136.7656,50.8375 C129.5046,50.8375 123.6246,45.8765 123.6246,37.5425 C123.6246,29.2085 129.5046,24.2485 136.7656,24.2485 C144.1286,24.2485 149.9066,29.1565 149.9066,37.5425 C149.9066,45.9275 144.1286,50.8375 136.7656,50.8375" id="Fill-31" fill="#FFFFFF"></path>
            <path d="M178.1812,33.81 L178.1812,49.046 C178.1812,49.865 177.7212,50.326 176.9032,50.326 L172.8122,50.326 C171.9942,50.326 171.5342,49.865 171.5342,49.046 L171.5342,34.269 C171.5342,31.458 169.8472,30.128 167.0342,30.128 C164.5292,30.128 161.9212,31.458 160.6422,33.043 L160.6422,49.046 C160.6422,49.865 160.1822,50.326 159.3642,50.326 L155.2742,50.326 C154.4552,50.326 153.9952,49.865 153.9952,49.046 L153.9952,25.322 C153.9952,24.605 154.3022,24.248 154.7632,24.248 C155.0182,24.248 155.2742,24.299 155.8872,24.708 L159.7222,27.265 C161.8692,25.476 164.8352,24.248 168.5172,24.248 C174.9092,24.248 178.1812,28.543 178.1812,33.81" id="Fill-33" fill="#FFFFFF"></path>
            <path d="M201.4454,41.8882 L201.4454,33.0942 C199.9634,31.2532 197.7134,29.7702 195.3094,29.7702 C191.5774,29.7702 188.5084,32.5312 188.5084,37.5422 C188.5084,42.4002 191.6284,45.3142 195.3094,45.3142 C197.9174,45.3142 200.0134,43.7302 201.4454,41.8882 L201.4454,41.8882 Z M206.5584,14.5332 C207.3774,14.5332 207.8374,14.9932 207.8374,15.8112 L207.8374,49.7632 C207.8374,50.4782 207.5304,50.8372 207.0694,50.8372 C206.8144,50.8372 206.5584,50.7842 205.9454,50.3762 L202.1104,47.8202 C200.2694,49.4562 197.8144,50.8372 194.3384,50.8372 C187.6904,50.8372 182.0144,45.5702 182.0144,37.5422 C182.0144,29.6172 187.6904,24.2482 194.3384,24.2482 C197.0484,24.2482 199.5024,25.1682 201.4454,26.7022 L201.4454,15.8112 C201.4454,14.9932 201.9054,14.5332 202.7234,14.5332 L206.5584,14.5332 Z" id="Fill-35" fill="#FFFFFF"></path>
            <path d="M231.253,35.2925 C231.253,32.8375 229.106,29.5145 224.811,29.5145 C220.566,29.5145 218.316,32.8375 218.316,35.2925 L231.253,35.2925 Z M237.542,37.5425 L237.542,38.9745 C237.542,39.7925 237.082,40.2515 236.264,40.2515 L218.316,40.2515 C218.47,43.0635 221.385,45.7245 225.833,45.7245 C228.646,45.7245 230.589,44.8555 231.611,44.1885 C232.327,43.7305 232.89,43.7805 233.4,44.4445 L234.985,46.4895 C235.497,47.1035 235.446,47.7695 234.781,48.2805 C233.4,49.2515 230.435,50.8375 225.833,50.8375 C216.374,50.8375 212.078,44.7005 212.078,37.5425 C212.078,30.3835 216.374,24.2485 224.811,24.2485 C233.146,24.2485 237.542,30.4865 237.542,37.5425 L237.542,37.5425 Z" id="Fill-37" fill="#FFFFFF"></path>
            <path d="M259.169,25.9863 C259.169,26.2423 259.067,26.4983 258.914,26.8043 L256.357,30.5373 C255.846,31.2533 255.283,31.2023 254.618,30.9463 C254.107,30.7933 253.494,30.6903 252.676,30.6903 C251.908,30.6903 249.352,31.2023 248.023,32.7873 L248.023,49.0463 C248.023,49.8643 247.563,50.3253 246.744,50.3253 L242.653,50.3253 C241.836,50.3253 241.375,49.8643 241.375,49.0463 L241.375,25.3223 C241.375,24.6053 241.683,24.2483 242.143,24.2483 C242.399,24.2483 242.653,24.2993 243.268,24.7083 L247.204,27.3163 C249.198,25.5773 251.807,24.2483 254.874,24.2483 C256.612,24.2483 257.789,24.6573 258.556,25.0143 C258.965,25.2703 259.169,25.6293 259.169,25.9863" id="Fill-39" fill="#FFFFFF"></path>
            <path d="M265.8155,14.5332 C266.6335,14.5332 267.0935,14.9932 267.0935,15.8112 L267.0935,42.8082 C267.0935,44.8022 268.2185,45.3142 269.2415,45.3142 C270.2645,45.3142 270.5715,45.0072 271.0315,45.0072 C271.3885,45.0072 271.7975,45.3142 272.1055,45.7752 L273.3325,47.7182 C273.4855,47.9722 273.5875,48.2282 273.5875,48.4842 C273.5875,48.8942 273.3325,49.2512 272.8725,49.5072 C271.2355,50.3252 269.3945,50.8372 267.6565,50.8372 C264.3335,50.8372 260.4475,49.2002 260.4475,43.9332 L260.4475,15.8112 C260.4475,14.9932 260.9075,14.5332 261.7255,14.5332 L265.8155,14.5332 Z" id="Fill-41" fill="#FFFFFF"></path>
            <path d="M284.5811,45.7241 C286.9841,45.6201 289.0291,44.5991 290.8701,43.2181 L290.8701,37.2861 L284.5811,38.5641 C280.5931,39.3821 279.9791,41.1731 279.9791,42.5011 C279.9791,44.7511 282.0241,45.8261 284.5811,45.7241 M297.2621,34.1171 L297.2621,49.7631 C297.2621,50.4781 296.9551,50.8371 296.4951,50.8371 C296.2391,50.8371 295.9831,50.7851 295.3701,50.3761 L291.7911,48.0251 C289.7971,49.6601 286.9341,50.8371 283.3531,50.8371 C276.9631,50.8371 274.0991,46.7451 274.0991,42.5011 C274.0991,38.7691 276.4511,35.1911 282.7401,34.1671 L290.8701,32.8901 C290.8701,32.0201 290.2061,31.0991 289.2851,30.4861 C288.3651,29.8721 286.7281,29.3101 283.6611,29.3101 C281.7181,29.3101 279.6211,29.7191 278.8031,29.8721 C278.1891,29.9741 278.0361,30.0261 277.9341,30.0261 C277.3201,30.0261 276.9631,29.6681 276.8091,29.0031 L276.2981,27.0091 C276.1441,26.3951 276.1441,26.2931 276.1441,26.1401 C276.1441,25.5771 276.5021,25.1681 277.1671,25.0151 C278.7011,24.7081 281.4621,24.2481 284.1721,24.2481 C288.4161,24.2481 291.0751,24.9641 293.2231,26.2931 C295.8811,27.9301 297.2621,30.9461 297.2621,34.1171" id="Fill-43" fill="#FFFFFF"></path>
            <path d="M321.9561,37.5425 C321.9561,32.5315 318.8891,29.7705 315.1551,29.7705 C312.7531,29.7705 310.5031,31.2525 309.0191,33.0935 L309.0191,41.8885 C310.4511,43.7295 312.5481,45.3135 315.1551,45.3135 C318.8371,45.3135 321.9561,42.3995 321.9561,37.5425 M328.4501,37.5425 C328.4501,45.5695 322.7741,50.8375 316.1271,50.8375 C312.6501,50.8375 310.1961,49.4565 308.3551,47.8195 L304.5201,50.3765 C303.9061,50.7845 303.6511,50.8375 303.3951,50.8375 C302.9351,50.8375 302.6281,50.4785 302.6281,49.7635 L302.6281,15.8115 C302.6281,14.9935 303.0891,14.5335 303.9061,14.5335 L307.7411,14.5335 C308.5601,14.5335 309.0191,14.9935 309.0191,15.8115 L309.0191,26.7025 C310.9631,25.1675 313.4171,24.2485 316.1271,24.2485 C322.7741,24.2485 328.4501,29.6175 328.4501,37.5425" id="Fill-45" fill="#FFFFFF"></path>
            <path d="M347.3174,26.3447 C347.6744,26.5997 347.8794,27.0087 347.8794,27.3667 C347.8794,27.7247 347.7774,27.9807 347.5214,28.3387 L346.4484,29.9237 C346.1924,30.2817 345.8344,30.4867 345.4244,30.4867 C345.1704,30.4867 344.8114,30.3837 344.4544,30.1797 C343.2774,29.4637 342.2044,29.1057 340.8234,29.1057 C338.4714,29.1057 337.5004,30.2307 337.5004,31.4577 C337.5004,33.4007 339.3404,33.9117 343.0734,35.8037 C346.2954,37.4387 349.2594,39.5877 349.2594,43.3707 C349.2594,48.5877 344.7604,50.8377 339.0854,50.8377 C334.9434,50.8377 332.3864,49.5577 330.9554,48.3827 C330.6484,48.1267 330.4434,47.7687 330.4434,47.4627 C330.4434,47.1027 330.5964,46.7457 330.8524,46.3877 L332.1814,44.4447 C332.4374,44.0877 332.7964,43.8827 333.1534,43.8827 C333.4604,43.8827 333.7674,44.0367 334.1754,44.2927 C335.4544,45.1087 336.9374,45.6717 338.9314,45.6717 C341.3354,45.6717 342.9204,44.8547 342.9204,43.2687 C342.9204,41.6327 341.3354,40.8137 338.8794,39.7417 C335.5564,38.2577 331.5174,36.0597 331.5174,31.9177 C331.5174,27.1617 335.2504,24.2477 340.6194,24.2477 C343.9934,24.2477 345.8344,25.2197 347.3174,26.3447" id="Fill-47" fill="#FFFFFF"></path>
        </g>
    </g>
</svg>